<svg width="90" height="73" viewBox="0 0 90 73" fill="none" xmlns="http://www.w3.org/2000/svg">
<path fill-rule="evenodd" clip-rule="evenodd" d="M26.7829 11.5V5C26.6163 3.33333 27.4829 0 32.2829 0H58.2829C59.9496 0 63.2829 0.8 63.2829 4V12H85.2829C86.6163 12.3333 89.2829 13.7 89.2829 16.5V30.5C89.2829 32.5 87.583 36 82.783 36C81.535 36 79.46 36.0113 76.9289 36.025L76.927 36.025C69.7231 36.0641 58.8257 36.1233 52.7829 36C52.9496 34.8333 52.7829 32.5 50.7829 32.5H39.2829C38.7829 32.6667 37.7829 33.6 37.7829 36H6.28296C4.61631 35.6667 1.28296 34.5 1.28296 30.5V16.5C1.28295 14.8333 2.18293 11.5 5.78293 11.5H26.7829ZM37.783 40V45.5L38.783 47.5H51.783L53.283 45.5V40H82.783L89.283 38V67.5C89.4496 69.3333 88.583 73 83.783 73H6.28296C4.78296 72.6667 1.68296 71 1.28296 67C0.882963 63 0.89525 46.6667 1.06192 38.5L6.28296 40H37.783ZM53.2829 6.5H36.2829V10.5H53.2829V6.5Z" fill="#191825"/>
</svg>
