<svg width="95" height="90" viewBox="0 0 95 90" fill="none" xmlns="http://www.w3.org/2000/svg">
<path fill-rule="evenodd" clip-rule="evenodd" d="M45.4644 0C40.7699 0 36.9644 3.80566 36.9644 8.5L36.9645 21.9993L41.9644 18V8.5C41.9644 6.56689 43.5314 5 45.4644 5H86.4644C88.3973 5 89.9644 6.56689 89.9644 8.5V44.5C89.9644 46.4331 88.3973 48 86.4644 48H45.4644C43.5314 48 41.9644 46.4331 41.9644 44.5V39.5L36.9644 43.5V44.5C36.9644 49.1943 40.7699 53 45.4644 53H59.4591L51.0381 86.8972C50.7052 88.2373 51.5216 89.5933 52.8616 89.9263C54.2015 90.259 55.5577 89.4426 55.8906 88.1028L64.6111 53H68.906L77.0288 88.0642C77.3405 89.4092 78.6835 90.2471 80.0286 89.9355C81.3737 89.624 82.2114 88.281 81.8999 86.9358L74.0385 53H86.4644C91.1588 53 94.9644 49.1943 94.9644 44.5V8.5C94.9644 3.80566 91.1588 0 86.4644 0H45.4644Z" fill="#191825"/>
<path d="M27.9644 10C27.9644 14.9706 23.9349 19 18.9644 19C13.9938 19 9.96436 14.9706 9.96436 10C9.96436 5.02944 13.9938 1 18.9644 1C23.9349 1 27.9644 5.02944 27.9644 10Z" fill="#191825"/>
<path d="M30.4644 36.5V26.5C31.631 27.5 34.1644 29.6 34.9644 30C35.9644 30.5 39.9644 25 41.4644 23.5C42.6644 22.3 44.9644 23 45.9644 23.5C49.131 22.3333 56.4644 19.6 60.4644 18C64.4644 16.4 64.131 18.6667 63.4644 20L45.9644 29.5C43.4644 32.3334 37.9644 38.2 35.9644 39C33.9644 39.8 31.4644 37.6667 30.4644 36.5Z" fill="#191825"/>
<path d="M21.9643 58H18.4643V85.2968C16.9644 90 11.7977 88 10.9644 85.5V49.5C18.9644 49.1 18.9644 42.6667 17.9644 39.5L12.9644 33.5L17.4644 28L9.46436 34.5L14.4643 40.5C17.6643 46.9 12.131 46.5 8.96436 45.5C6.79768 42.5 2.16434 36.4 0.96434 36C-0.23566 35.6 0.46434 33.1667 0.96434 32L14.4643 20H22.9643C25.7643 20 27.4643 23 27.9643 24.5V85C27.9643 88.2 23.9643 88.3333 21.9643 88V58Z" fill="#191825"/>
</svg>
