<svg width="88" height="74" viewBox="0 0 88 74" fill="none" xmlns="http://www.w3.org/2000/svg">
<path d="M35 13C32.5 15.5 28.5 20 29 23.9564C26.9794 25.25 24.5773 26 22 26C14.8203 26 9 20.1797 9 13C9 5.8203 14.8203 0 22 0C29.1797 0 35 5.8203 35 13Z" fill="#191825"/>
<path d="M79 13C79 20.1797 73.1797 26 66 26C64.0342 26 62.1704 25.5637 60.5 24.7826C60.5 18 54 12.5 53 13C53 5.8203 58.8203 0 66 0C73.1797 0 79 5.8203 79 13Z" fill="#191825"/>
<path d="M58 26C58 33.1797 52.1797 39 45 39C37.8203 39 32 33.1797 32 26C32 18.8203 37.8203 13 45 13C52.1797 13 58 18.8203 58 26Z" fill="#191825"/>
<path d="M0 57C2 58.6 13.8333 60 19.5 60.5C20 43 28.3333 40.3333 33.5 37.5C29.1 33.5 28.3333 28.8333 28.5 27H15C3.8 27 0.333333 36.6667 0 41.5V57Z" fill="#191825"/>
<path d="M88 56.5522C86.0896 58.1284 74.7861 59.5075 69.3731 60C68.8955 42.7612 60.9353 40.1343 56 37.3433C60.203 33.403 60.9353 28.806 60.7761 27H73.6716C84.3702 27 87.6816 36.5224 88 41.2836V56.5522Z" fill="#191825"/>
<path d="M66.5 55V70C50.5 76 30.5 72.5 22.5 70L23 53.5C25.4 43.1 33.3333 40.1667 37 40H52.5C62.1 40.4 65.8333 50.1667 66.5 55Z" fill="#191825"/>
</svg>
