<svg width="66" height="89" viewBox="0 0 66 89" fill="none" xmlns="http://www.w3.org/2000/svg">
<path d="M37.2169 7C37.2169 3.13401 40.3509 0 44.2169 0H58.2169C62.0829 0 65.2169 3.13401 65.2169 7V27C65.2169 30.866 62.0829 34 58.2169 34H44.2169C40.3509 34 37.2169 30.866 37.2169 27V7Z" fill="#191825"/>
<path d="M4.21692 7C4.21692 3.13401 7.35093 0 11.2169 0H25.2169C29.0829 0 32.2169 3.13401 32.2169 7V30.75C32.2169 32.5449 30.7618 34 28.9669 34C24.9644 34.5 25.7169 32.5449 25.7169 30.75V23.5343C25.7169 21.8968 25.1428 20.3111 24.0945 19.0531L23.5945 18.4531C20.7959 15.0948 15.6379 15.0948 12.8394 18.4531L12.2426 19.1692C11.2534 20.3563 10.6847 21.8373 10.6253 23.3814L10.33 31.0598C10.33 34 10.6253 34 7.27459 34C5.58589 34 4.21692 32.631 4.21692 30.9423V7Z" fill="#191825"/>
<path d="M15.2169 89.0001H44.2169C49.8169 81.4001 51.2169 72.5 51.2169 69V45C48.8169 40.6 43.8836 43.1667 41.7169 45C39.3169 38.2 34.7169 41.1667 32.7169 43.5C29.9169 34.7 24.8836 38.8333 22.7169 42V24.0001C22.4644 19.0531 13.4644 19.5 13.2169 24.0001L13.7169 66.0001C12.8836 62.0001 10.8169 53.4001 9.21692 51.0001C7.21692 48.0001 2.71691 49.0001 1.21691 52.5001C0.0169127 55.3001 3.38358 65.6667 5.21691 70.5001C5.21691 77.3001 11.8836 85.6667 15.2169 89.0001Z" fill="#191825"/>
</svg>
