<svg width="88" height="76" viewBox="0 0 88 76" fill="none" xmlns="http://www.w3.org/2000/svg">
<path d="M44.5691 0L87.0691 19C87.7358 19.8333 88.6691 21.7 87.0691 22.5C86.5826 22.7433 83.7105 24.0406 79.5691 25.8972V73.5C77.5691 76.7 75.4024 74.8333 74.5691 73.5V28.135C65.1074 32.3643 52.4623 37.9919 44.5691 41.5L2.06909 23C0.402424 22 -1.83091 19.6 2.56909 18C6.96909 16.4 32.4024 5.33333 44.5691 0Z" fill="#191825"/>
<path d="M21.0691 54V37L41.5691 47H46.5691L67.0691 37V54H21.0691Z" fill="#191825"/>
<path d="M21.0691 59H67.0691V66C67.0691 67.2 65.7358 67.5 65.0691 67.5H23.0691C21.4691 67.5 21.0691 66.1667 21.0691 65.5V59Z" fill="#191825"/>
</svg>
