<svg width="40" height="29" viewBox="0 0 40 29" fill="none" xmlns="http://www.w3.org/2000/svg">
<path d="M8.72727 2.56667C8.72727 1.14914 9.86691 0 11.2727 0H37.4545C38.8604 0 40 1.14914 40 2.56667C40 3.9842 38.8604 5.13333 37.4545 5.13333H11.2727C9.86691 5.13333 8.72727 3.9842 8.72727 2.56667Z" fill="black"/>
<path d="M0 2.56667C0 1.14914 1.13964 0 2.54545 0C3.95127 0 5.09091 1.14914 5.09091 2.56667C5.09091 3.9842 3.95127 5.13333 2.54545 5.13333C1.13964 5.13333 0 3.9842 0 2.56667Z" fill="black"/>
<path d="M8.72727 14.5C8.72727 13.0825 9.86691 11.9333 11.2727 11.9333H37.4545C38.8604 11.9333 40 13.0825 40 14.5C40 15.9175 38.8604 17.0667 37.4545 17.0667H11.2727C9.86691 17.0667 8.72727 15.9175 8.72727 14.5Z" fill="black"/>
<path d="M0 14.5C0 13.0825 1.13964 11.9333 2.54545 11.9333C3.95127 11.9333 5.09091 13.0825 5.09091 14.5C5.09091 15.9175 3.95127 17.0667 2.54545 17.0667C1.13964 17.0667 0 15.9175 0 14.5Z" fill="black"/>
<path d="M8.72727 26.4333C8.72727 25.0158 9.86691 23.8667 11.2727 23.8667H37.4545C38.8604 23.8667 40 25.0158 40 26.4333C40 27.8509 38.8604 29 37.4545 29H11.2727C9.86691 29 8.72727 27.8509 8.72727 26.4333Z" fill="black"/>
<path d="M0 26.4333C0 25.0158 1.13964 23.8667 2.54545 23.8667C3.95127 23.8667 5.09091 25.0158 5.09091 26.4333C5.09091 27.8509 3.95127 29 2.54545 29C1.13964 29 0 27.8509 0 26.4333Z" fill="black"/>
</svg>
