<svg width="341" height="341" viewBox="0 0 341 341" fill="none" xmlns="http://www.w3.org/2000/svg">
<path d="M29.0005 186.638H122.5L179.282 111.001L241.5 206.501H322" stroke="black" stroke-width="30" stroke-linecap="square"/>
<path d="M21.5005 235.001H156.5L236.5 110.001L267 159.501H324.5" stroke="black" stroke-width="30" stroke-linecap="square"/>
<path d="M22.5005 136.001H97.0005L119 112.001L216.5 250.501H320" stroke="black" stroke-width="30" stroke-linecap="square"/>
<path fill-rule="evenodd" clip-rule="evenodd" d="M110.001 0.000711325H230.001L232.07 0.000345114C246.759 -0.003317 261.494 -0.00697911 273.735 1.63877C287.702 3.51658 304.237 8.17137 318.034 21.9678C331.83 35.7641 336.485 52.2998 338.362 66.2663C340.008 78.5053 340.004 93.238 340.001 107.925V107.931L340.001 110.001V174.501H300.001V110.001C300.001 77.0024 300.001 60.5033 289.749 50.2519C279.498 40.0007 262.999 40.0007 230.001 40.0007H110.001C77.0023 40.0007 60.503 40.0007 50.2518 50.2519C40.0006 60.5033 40.0006 77.0024 40.0006 110.001V151.001H0.000589254V110.001L0.000345114 107.931C-0.003317 93.2424 -0.00697911 78.5071 1.63877 66.2663C3.51646 52.2998 8.17124 35.7641 21.9676 21.9678C35.764 8.17137 52.2997 3.51658 66.2662 1.63877C78.5069 -0.00697911 93.2423 -0.003317 107.931 0.000345114L110.001 0.000711325ZM0.000589254 171.645V201.652H40.0006V171.645H0.000589254ZM0.000589254 220.001H40.0006V230.001C40.0006 262.999 40.0006 279.498 50.2518 289.749C60.503 300.001 77.0023 300.001 110.001 300.001H230.001C262.999 300.001 279.498 300.001 289.749 289.749C300.001 279.498 300.001 262.999 300.001 230.001V235.501H340.001V230.001L340.001 232.071V232.077C340.004 246.763 340.008 261.496 338.362 273.735C336.485 287.702 331.83 304.237 318.034 318.034C304.237 331.83 287.702 336.485 273.735 338.363C261.494 340.008 246.759 340.005 232.07 340.001L230.001 340.001H110.001L107.931 340.001C93.242 340.005 78.5069 340.008 66.2662 338.363C52.2997 336.485 35.764 331.83 21.9676 318.034C8.17124 304.237 3.51646 287.702 1.63877 273.735C-0.00697911 261.494 -0.003317 246.759 0.000345114 232.07L0.000589254 230.001V220.001ZM340.001 221.501V191.501H300.001V221.501H340.001Z" fill="black"/>
</svg>
