<svg width="40" height="40" viewBox="0 0 40 40" fill="none" xmlns="http://www.w3.org/2000/svg">
<path fill-rule="evenodd" clip-rule="evenodd" d="M0.192784 32.204C0.0120346 30.8595 0.000402112 29.2591 0 27.6462L8.61669e-05 25.8823H4.70592L4.70586 25.9346V29.464H4.72103C4.77095 31.8026 4.98596 33.162 5.91197 34.088C7.11799 35.2941 9.05908 35.2941 12.9412 35.2941H27.0588C30.9409 35.2941 32.882 35.2941 34.088 34.088C34.7406 33.4355 35.04 32.5678 35.1775 31.294H35.294V27.7646H35.2938C35.2939 27.6123 35.294 27.4568 35.294 27.2979V27.7059H39.9999L39.9999 27.0588L40 27.3023C40 27.492 40 27.6818 39.9998 27.8713C39.9981 29.4075 39.9796 30.922 39.8072 32.204C39.5863 33.8471 39.0387 35.7925 37.4156 37.4156C35.7925 39.0387 33.8471 39.5863 32.204 39.8072C30.922 39.9796 29.4075 39.9981 27.8712 39.9998C27.6912 40 27.5109 40 27.3306 40H12.6693C12.489 40 12.3087 40 12.1287 39.9998C10.5925 39.9981 9.07797 39.9796 7.79601 39.8072C6.15289 39.5863 4.20753 39.0387 2.58443 37.4156C0.961336 35.7925 0.413716 33.8471 0.192784 32.204ZM4.70586 17.7755L4.70589 17.7647H8.61669e-05L0 12.3538C0.000402112 10.7409 0.0120346 9.14054 0.192784 7.79599C0.413716 6.15288 0.961336 4.20752 2.58443 2.58442C4.20753 0.961319 6.15289 0.413699 7.79601 0.192796C9.23609 -0.000821068 10.9696 -0.000390233 12.6977 4.06014e-05H27.3022C29.0303 -0.000390233 30.7639 -0.000821068 32.204 0.192796C33.8471 0.413699 35.7925 0.961319 37.4156 2.58442C39.0387 4.20752 39.5863 6.15288 39.8072 7.79599C39.9796 9.07797 39.9981 10.5925 39.9998 12.1288C40 12.3183 40 12.5081 40 12.6978L39.9999 20.5294H35.2941V12.9412C35.2941 9.05906 35.2941 7.11799 34.088 5.91197C32.882 4.70595 30.9409 4.70595 27.0588 4.70595H12.9412C9.05908 4.70595 7.11799 4.70595 5.91197 5.91197C4.70595 7.11799 4.70595 9.05906 4.70595 12.9412L4.70586 14.2461H10.6977L14.2366 10.355L17.4758 14.9928L21.219 9.96711L24.4464 14.9602L27.8473 9.60424L32.3811 17.0207H35.294V20.5501H30.402L27.7904 16.278L26.5554 18.223L29.3651 22.5697H35.294V26.0991H27.4439L24.4729 21.5027L23.306 23.3404L26.3961 27.7646H35.2938C35.2919 29.2092 35.2782 30.3606 35.1775 31.294H24.5561L21.256 26.569L19.4177 29.464H4.72103C4.70595 28.7568 4.70595 27.9601 4.70595 27.0588L4.70586 25.9346H17.478L19.0661 23.4335L17.3838 21.025L15.3512 23.754H4.70586L4.70592 23.7237H8.61669e-05V20.1935H4.70586V20.2246H13.5792L15.2541 17.9757L13.8739 15.9995L12.2586 17.7755H4.70586ZM39.9999 22.5294L39.9999 26.0588H35.294L35.2941 22.5294H39.9999ZM20.9411 21.2352L22.5881 19.3529L20.7646 16.8823L19.0587 19.1764L20.9411 21.2352Z" fill="white"/>
</svg>
